<svg xmlns="http://www.w3.org/2000/svg" xmlns:xlink="http://www.w3.org/1999/xlink" width="302.168" height="68.134" viewBox="0 0 302.168 68.134"><defs><clipPath id="a"><rect width="302.168" height="68.134" transform="translate(0 0)" fill="none"/></clipPath></defs><g transform="translate(0 0)"><g clip-path="url(#a)"><path d="M31.7,26.078c5.6-.213,8.692,3.252,7.887,8.8C38,45.823,21.119,53.831,12.68,45.265c-.259-.262-1.171-1.277-1.093-1.583.11-.429,1.231-.674,1.627-.554.232.07,1.44,1.557,1.814,1.889C22,51.194,32.992,46.342,36.5,38.706c2.489-5.413,1.719-11.835-5.541-11.456a13.92,13.92,0,0,1-4.037,4.109c-1.909,1.14-4.853,1.835-5.946-.678-.035-.4,1.965-1.553,2.367-1.786a23.862,23.862,0,0,1,3.049-1.52c.964-.382,2.305-.594,3.117-.957.438-.195,1.333-2.453,1.546-3.021C34.092,15.284,34.721-.022,22.25.907,10.431,1.787,2.508,21.365,1.94,31.446c-.259,4.589.55,14.886,7.623,9.959,4.331-3.018,6.273-9.028,6.932-14.049A35.107,35.107,0,0,0,14.956,10.6c.018-.489,1.166-.843,1.561-.747.515.124.706,1.135.862,1.609,1.686,5.122,1.619,13.816.431,19.064C16.594,35.9,13.5,41.1,8.054,42.981-3.112,46.839.11,29.36,1.6,23.708,4.348,13.317,12.386-.888,24.977.044c11.365.84,11.405,14.226,8.3,22.364-.477,1.25-1.165,2.424-1.574,3.67M28.986,27.56c-.881-.2-6.02,2.462-6.028,2.9a1.858,1.858,0,0,0,1.331,1c1.744.252,3.986-2.476,4.7-3.9" fill="#1a1818"/><path d="M211.774,26.078c5.6-.213,8.692,3.252,7.887,8.8-1.588,10.941-18.472,18.949-26.911,10.383-.259-.262-1.171-1.277-1.093-1.583.11-.429,1.231-.674,1.627-.554.232.07,1.44,1.557,1.814,1.889,6.969,6.177,17.964,1.325,21.474-6.311,2.489-5.413,1.719-11.835-5.541-11.456a13.92,13.92,0,0,1-4.037,4.109c-1.909,1.14-4.853,1.835-5.946-.678-.035-.4,1.965-1.553,2.367-1.786a23.862,23.862,0,0,1,3.049-1.52c.964-.382,2.3-.594,3.117-.957.438-.195,1.333-2.453,1.546-3.021,3.035-8.113,3.664-23.419-8.807-22.49-11.819.88-19.742,20.458-20.31,30.539-.259,4.589.55,14.886,7.623,9.959,4.331-3.018,6.273-9.028,6.932-14.049A35.107,35.107,0,0,0,195.026,10.6c.018-.489,1.166-.843,1.561-.747.515.124.706,1.135.862,1.609,1.686,5.122,1.619,13.816.431,19.064-1.216,5.374-4.31,10.579-9.756,12.46-11.166,3.858-7.944-13.621-6.451-19.273,2.745-10.391,10.783-24.6,23.374-23.664,11.365.84,11.4,14.226,8.3,22.364-.477,1.25-1.165,2.424-1.574,3.67m-2.718,1.482c-.881-.2-6.02,2.462-6.028,2.9a1.858,1.858,0,0,0,1.331,1c1.744.252,3.986-2.476,4.7-3.9" fill="#1a1818"/><path d="M239.1,39.857c1.025.931,2.572-.744,3.171-1.506a15.075,15.075,0,0,0,2.539-5.607c.21-.874-.057-2.037,1.073-2.266,1.031-.209.495,2.076.467,2.695-.159,3.541-.432,7.067-.87,10.588a6.069,6.069,0,0,1,3.114,3.082c.446,1.051,1.083,3.783.11,4.6-1.055.881-.839-1.662-.889-2.089a6.744,6.744,0,0,0-2.392-4.64c-.195.113-.147.265-.187.427-.4,1.62-.58,3.367-1.022,5.025-1.646,6.177-6.384,16.016-13.178,17.678-8.092,1.979-9.937-6.4-7.472-12.4,3.014-7.33,12.239-13.505,20.3-12.231l.756-6.275-1.171,1.6c-2.47,2.762-6.4,3.607-6.61-1.235-2.07,2.382-5.536,2.683-6.907-.54l-.254-.077c-.506,2.022-2.142,4.325-4.2,4.993-3.217,1.042-3.114-2.206-2.653-4.378.647-3.048,3.738-7.834,7.357-7.222,1.1.186,3.431,1.7,2.028,2.788a.632.632,0,0,1-.429-.068c-.2-.119-.854-1.192-1.3-1.538-1.575-1.223-2.529-.356-3.644.919a12.631,12.631,0,0,0-2.835,6.3c-.149,1.915.556,4.208,2.465,1.969a14.811,14.811,0,0,0,2.56-6.2c.239-1.224-.212-2.186,1.519-2.123.129,1.7.153,3.283,1.087,4.774,1.307,2.084,2.926,1.64,4.35-.021,1.144-1.336.855-2.286,1.147-3.912.146-.81.424-2.66,1.01-3.186.286-.257.913-.592,1.084-.088-.279,2.171-1.878,8.568-.119,10.167m4.642,4.123c-7.131-2.294-15.474,4.239-18.2,10.476-1.377,3.151-1.975,7.583-.211,10.688,2.873,5.055,8.783.582,11.255-2.493,4.163-5.179,6.164-12.193,7.155-18.671" fill="#1a1818"/><path d="M283.9,33.48l2.072-3.667a9.051,9.051,0,0,1,3.071-2.977c2.851-1.337,3.395.324,3.254,2.88-.2,3.525-2,9.556-1.154,12.751.182.683.516,1.362,1.341,1.359,1.587-.005,4.741-3.381,5.739-4.613.98-1.209,2.245-3.735,3.162-4.613.19-.182.5-.391.736-.136.162.234-.14.653-.249.869-1.508,2.972-5.5,8.379-8.852,9.168-4.4,1.036-3.63-3.987-3.3-6.747.313-2.594,1.163-5.514,1.34-8.038.058-.831.19-2.386-.683-2.778-1-.095-2.925,2.892-3.443,3.715a35.031,35.031,0,0,0-3.751,8.713c-.057.367-1.16.878-1.266.447l.628-7.623c.241-4.956-1.2-2.775-2.543-.2-1.291,2.487-2.232,5.18-3.366,7.741-2.285,2.246-1.233-.959-1.385-2.307-2.075,2.333-5.574,2.451-6.793-.74-.315-.05-.192.026-.257.172a11.387,11.387,0,0,1-1.654,3.037c-1.68,1.988-5.452,3.426-5.485-.544-.029-3.495,3.27-9.646,7.335-9.326,1.177.093,3.491,1.412,2.535,2.776a.7.7,0,0,1-.537.043c-.443-.152-1.245-2.172-2.743-2.21s-3.492,3.087-4.074,4.321c-.67,1.42-1.693,4.723-.609,6.043,1.147,1.4,2.842-1.695,3.25-2.541a17.559,17.559,0,0,0,1.34-4.213c.239-1.225-.212-2.186,1.519-2.124a9.851,9.851,0,0,0,1.045,4.693c1.336,2.222,3.064,1.711,4.509-.069,1.472-1.812.773-3.916,1.264-6.016.149-.637,1.222-1.3,1.339-.278l-.375,5.865,2.691-5.76c.963-1.569,3.2-3.365,4.014-.63a11.279,11.279,0,0,1,.333,1.764Z" fill="#1a1818"/><path d="M87.9,37.181c-1.261,1.423-2.558,3.252-4.631,3.453-2.224.216-3.1-.874-3.485-2.932-.161-.847-.37-3.868.139-4.481.262-.314,1-.551,1.163-.022a12.785,12.785,0,0,0,.209,4.721c1.385,4.748,5.12.435,6.38-1.89.778-1.435.488-2.789.731-4.328.167-1.053,1.443-1.228,1.463-.375L89.382,36.5l.12,1.17c1.039-2.922,2.738-9.165,6.057-10.174,4.241-1.289,3.9,5.119,4.2,7.645.438,3.8,1.067,9.635,5.406,11.007,5.026,1.59,8.837-4.572,10.547-8.4.261-.583,1.105-3.187,1.463-3.349.3-.136.9-.1.962.26a19.372,19.372,0,0,1-.781,2.265c-2.039,5.238-6.13,11.4-12.662,10.06-6.742-1.388-6.025-10.4-6.543-15.547-.134-1.335-.746-4.377-2.653-3.023-2.623,1.863-4.626,9.752-6.054,12.827-.339.731-.983,1.829-1.764.9Z" fill="#1a1818"/><path d="M44.548,37.427c.255,3.388,2.454,4.3,5.348,2.691,1.3-.723,4.442-3.442,4.963-4.789.323-.836.185-3.064.807-3.511.463-.333,1.05-.286,1.107.379a26.12,26.12,0,0,1-.454,3.356c-.015.144-.124.43.023.517,1.306-2.9,4.208-6.182,7.657-6.179.533,0,2.689.294,1.86,1.128-.559.562-1.385-.041-1.993-.12-4.957-.644-7.088,7.69-7.8,11.314-.189.964.125,2.191-1.315,1.984l-.2-.293.122-6.6c-2.3,2.4-5.117,4.653-8.695,4.184-5.547-.726-2.175-12.343,3.171-11.433,3.208.546,1.652,4.922-.167,6.313a7.323,7.323,0,0,1-2.274,1.059Zm0-.74a4.407,4.407,0,0,0,4.913-3.05c.321-.914.661-2.982-.772-3.007-2.107-.035-4.127,4.2-4.141,6.057" fill="#1a1818"/><path d="M78.365,30.418c.221.384-.3.805-.667.841a13.344,13.344,0,0,1-1.712-.374c-4.393-.365-6.548,6.649-7.294,10-.148.664-.31,2.571-.492,2.963-.171.368-1.213.69-1.3-.056a39.145,39.145,0,0,1,.131-6.05c.062-.9.455-5.24.8-5.735,2.367-1.623.6,3.01.862,4.068,1.4-3.223,5.074-7.061,8.936-5.965a2.646,2.646,0,0,1,.736.312" fill="#1a1818"/><path d="M261.028,30.418c.221.384-.3.805-.667.841a13.345,13.345,0,0,1-1.712-.374c-4.393-.365-6.548,6.649-7.294,10-.148.664-.31,2.571-.492,2.963-.171.368-1.213.69-1.3-.056a39.144,39.144,0,0,1,.131-6.05c.062-.9.455-5.24.8-5.735,2.367-1.623.6,3.01.862,4.068,1.4-3.223,5.074-7.061,8.936-5.965a2.646,2.646,0,0,1,.736.312" fill="#1a1818"/><path d="M79.289,31.719a1.309,1.309,0,0,1,.252-1.651,4.129,4.129,0,0,1,1.19-.54c.12-.141-.339-.56.262-.909,1.4-.814,1.976,1.83.919,2.892-.6.6-2.027.9-2.623.208m1.692-1.447-.381.073c-.4,1.245.6,1.209.381-.073" fill="#1a1818"/><path d="M154.492,41.538c.035.059,1.012.632,1.168.72a10.753,10.753,0,0,0,2.022.906c.348.1,1.113.166,1.343.275.344.163-.008.512-.252.592-1.3.429-3.71-1.141-4.858-1.7-2.162,2.882-5.434,5.128-9.148,5.23a7.908,7.908,0,0,0,3.083,2.849c-.053.184-.27.158-.424.159-.942.006-2.312-1.331-2.93-2.007a11.677,11.677,0,0,0-.811-1.037c-.238-.153-1.288-.333-1.72-.515a7.508,7.508,0,0,1-4.038-4.435c-1.842-5,1.2-10.158,4.358-13.853a27.512,27.512,0,0,1-2.142-7.686c-.466-4.9,1.394-11.224,6.933-12.245,5.952-1.1,7.224,3.629,5.1,8.256-1.976,4.313-5.581,7.9-8.547,11.534l1.637,3.042c.082.019,1.079-.96,1.276-1.11,2.7-2.055,7.085-3.017,9.025.52,1.4,2.561.62,6.405-.439,8.979-.112.272-.739,1.361-.64,1.529M143.15,27.616c.128.029.155-.041.229-.116.913-.938,1.927-2.209,2.774-3.235,2.248-2.724,5.943-7.3,6.014-10.932.084-4.316-3.677-5.12-6.854-3.072-3.374,2.177-4.441,6.417-4.091,10.233a25.331,25.331,0,0,0,1.928,7.122m7.766,1.561c-1.987.225-3.927,1.836-5.137,3.314a29.512,29.512,0,0,0,7.815,8.365c1.406-2.722,2.527-7.382.716-10.107a3.451,3.451,0,0,0-3.394-1.572m-7.767,17.378a12.649,12.649,0,0,1-1.428-8.239,14.339,14.339,0,0,1,2.646-5.72l-1.642-2.9c-2.962,3.475-5.348,8.656-3.509,13.2a5.809,5.809,0,0,0,3.933,3.654m9.932-4.916a31.283,31.283,0,0,1-7.111-6.793,15.232,15.232,0,0,0-.937-1.3c-.081-.074-.062-.118-.191-.046a10.09,10.09,0,0,0-.859,1.3,12.08,12.08,0,0,0,.322,12.023c3.169.319,6.289-1.76,8.168-4.159.122-.156.7-.873.608-1.027" fill="#1a1818"/></g></g></svg>