<svg xmlns="http://www.w3.org/2000/svg" width="18" height="21.388" viewBox="0 0 18 21.388"><g transform="translate(-4.997 -2.927)"><path d="M20.361,5.563A9,9,0,1,0,7.633,18.291l3.354,3.354a.821.821,0,0,0,1.161-1.161L8.795,17.129a7.362,7.362,0,1,1,10.4,0l-5.783,5.783a.821.821,0,1,0,1.161,1.161l5.783-5.783a9,9,0,0,0,0-12.727Z" transform="translate(0 0)"/><path d="M19.18,13.09a4.09,4.09,0,1,0-4.09,4.09,4.09,4.09,0,0,0,4.09-4.09Zm-6.544,0a2.454,2.454,0,1,1,2.454,2.454,2.454,2.454,0,0,1-2.454-2.454Z" transform="translate(-1.093 -1.106)"/></g></svg>