<svg xmlns="http://www.w3.org/2000/svg" width="25.424" height="9.94" viewBox="0 0 25.424 9.94"><path d="M-10.731-1.288h3.29V0h-4.886V-9.73h1.6Zm4.088-3.6a4.969,4.969,0,0,1,.665-2.562A4.735,4.735,0,0,1-4.172-9.219a5.04,5.04,0,0,1,2.5-.637,5.077,5.077,0,0,1,2.765.763A4.345,4.345,0,0,1,2.849-6.93H.931A2.572,2.572,0,0,0-.119-8.078a3.116,3.116,0,0,0-1.554-.378,3.4,3.4,0,0,0-1.722.434A3.021,3.021,0,0,0-4.578-6.776a4,4,0,0,0-.427,1.89A4,4,0,0,0-4.578-3,3.067,3.067,0,0,0-3.395-1.743,3.354,3.354,0,0,0-1.673-1.3,3.116,3.116,0,0,0-.119-1.68,2.572,2.572,0,0,0,.931-2.828H2.849A4.308,4.308,0,0,1,1.092-.672,5.112,5.112,0,0,1-1.673.084,5.029,5.029,0,0,1-4.179-.553a4.749,4.749,0,0,1-1.8-1.771A4.969,4.969,0,0,1-6.643-4.886ZM13.1-9.73,9.443,0H7.6L3.927-9.73H5.635L8.519-1.638l2.9-8.092Z" transform="translate(12.327 9.856)"/></svg>