<svg xmlns="http://www.w3.org/2000/svg" xmlns:xlink="http://www.w3.org/1999/xlink" width="19.2" height="19.199" viewBox="0 0 19.2 19.199"><defs><clipPath id="a"><rect width="19.2" height="19.199" transform="translate(0 0)"/></clipPath></defs><g transform="translate(0 0)"><g clip-path="url(#a)"><path d="M17.314,1.713h-2.4V.6a.6.6,0,0,0-1.2,0V1.713H6.343V.6a.6.6,0,0,0-1.2,0V1.713H1.886A1.888,1.888,0,0,0,0,3.6V17.313A1.888,1.888,0,0,0,1.886,19.2H14.314a.588.588,0,0,0,.23-.047.608.608,0,0,0,.2-.129l4.285-4.286a.586.586,0,0,0,.145-.271.5.5,0,0,0,.015-.075.514.514,0,0,0,.016-.078V3.6a1.888,1.888,0,0,0-1.886-1.886M1.886,2.913H5.143v.55a1.017,1.017,0,0,0-.857,1,1.029,1.029,0,0,0,2.058,0V2.913h7.371v.55a1.017,1.017,0,0,0-.857,1,1.029,1.029,0,0,0,2.058,0V2.913h2.4A.687.687,0,0,1,18,3.6V6H1.2V3.6a.687.687,0,0,1,.686-.686M1.2,17.313V7.2H18v6.514H15.6A1.888,1.888,0,0,0,13.714,15.6V18H1.886a.688.688,0,0,1-.686-.687m13.714-.162V15.6a.687.687,0,0,1,.686-.686h1.551Z"/><path d="M8.523,12.606a2.241,2.241,0,0,0,.524-1.426,1.55,1.55,0,0,0-.439-1.143A1.743,1.743,0,0,0,7.318,9.6a2.058,2.058,0,0,0-.9.194,1.523,1.523,0,0,0-.654.6,2.035,2.035,0,0,0-.262,1.02H6.689a.94.94,0,0,1,.154-.578.571.571,0,0,1,.836-.035.7.7,0,0,1,.136.46,1.412,1.412,0,0,1-.28.8,4.588,4.588,0,0,1-.686.78q-.409.373-1.11.955c.014-.009-.06.051-.223.18v.914H9.123v-1H7.183a7.68,7.68,0,0,0,1.34-1.283"/><path d="M13.221,10.318a1.723,1.723,0,0,0-1.541-.711,1.723,1.723,0,0,0-1.541.711,3.455,3.455,0,0,0-.478,1.947,3.483,3.483,0,0,0,.478,1.961,1.72,1.72,0,0,0,1.541.711,1.72,1.72,0,0,0,1.541-.711,3.483,3.483,0,0,0,.478-1.961,3.455,3.455,0,0,0-.478-1.947m-.788,2.755a1.035,1.035,0,0,1-.233.517.779.779,0,0,1-1.042,0,1.035,1.035,0,0,1-.233-.517,4.746,4.746,0,0,1-.057-.808,3.093,3.093,0,0,1,.158-1.113.633.633,0,0,1,.654-.392.633.633,0,0,1,.653.388,3.093,3.093,0,0,1,.158,1.117h0a4.647,4.647,0,0,1-.059.808"/></g></g></svg>