<svg xmlns="http://www.w3.org/2000/svg" width="109.977" height="34.144" viewBox="0 0 109.977 34.144"><g transform="translate(-1268.782 -764.856)"><path d="M12.768-14.3q0,.147-.273.168A2.992,2.992,0,0,0,11-13.839a13.105,13.105,0,0,0-1.6,3.129q-.294.672-.882,1.932a14.69,14.69,0,0,0-.861,1.921,7.147,7.147,0,0,0-.126,1.649L7.56-.987a.456.456,0,0,0,.3.473,4.34,4.34,0,0,0,1.208.136q.462,0,.462.21,0,.168-.4.168-.084,0-.483-.021-.483,0-1.344-.021L5.628-.063q-.063,0-.546.021-.588.021-1.05.021L2.709,0q-.336,0-.336-.168t.294-.168Q4.158-.357,4.3-.609a1.022,1.022,0,0,0,.147-.672V-6.258a36.343,36.343,0,0,0-2.058-4.326Q1.785-11.865.672-13.8a1.231,1.231,0,0,0-1.029-.378H-.588a.883.883,0,0,1-.21.021q-.42,0-.42-.231,0-.189.441-.189-.063,0,.178.021t.809.021l2.478.021H3.15q.378-.021.924-.021H5.313q.21,0,.441-.021h.21q.42,0,.42.168,0,.126-.095.147t-.745.042q-1.155.042-1.155.5a1.739,1.739,0,0,0,.147.683q.147.346.987,2.047.735,1.47,1.764,3.444.651-1.155,1.848-3.822a10.766,10.766,0,0,0,.9-2.352q0-.462-.609-.462-.924.021-.924-.189,0-.231.4-.21l.588.021q.588.021,1.995.021h.8Q12.768-14.511,12.768-14.3ZM24.129-3.675q0,.042-.021,1.953-.021,1.008-.031,1.449t-.01.42Q18.522-.105,14.364,0L12.6.042q-.378,0-.378-.168,0-.126.095-.147t.641-.063Q13.944-.4,14.028-.9a4.026,4.026,0,0,0,.042-.609V-12.159q0-1.26-.021-1.386a.56.56,0,0,0-.21-.462,1.579,1.579,0,0,0-.777-.126q-.651,0-.651-.189,0-.21.578-.21t1.606-.021q3.864-.084,6.321-.042l1.428.021a9.4,9.4,0,0,0,1.134-.084l.189,2.289q.1,1.092.1,1.344a.186.186,0,0,1-.21.21q-.21,0-.273-.546a2.84,2.84,0,0,0-1.166-2.111,5.166,5.166,0,0,0-2.887-.661q-.588,0-2.016.063v6.2A7.17,7.17,0,0,0,20.128-8.2q.6-.346.809-1.8.1-.777.315-.777.189,0,.189.378t-.063,1.554q-.021.4-.021,1.071,0,1.806.042,2.73a1.967,1.967,0,0,1,.021.315q0,.252-.189.252a.184.184,0,0,1-.189-.095,4.366,4.366,0,0,1-.126-.682,3.712,3.712,0,0,0-.577-1.859,2.579,2.579,0,0,0-1.691-.368H17.22V-.4L18.564-.42q2.31-.042,2.814-.105A2.962,2.962,0,0,0,22.6-.987a2.312,2.312,0,0,0,.724-.9,9.967,9.967,0,0,0,.431-1.785q.063-.315.21-.315Q24.129-3.99,24.129-3.675ZM39.27-14.3q0,.1-.158.126t-1.124.063q-.567.021-.651.231a4.884,4.884,0,0,0-.063,1.344L37.3-10.1q.021,2.436.021,6.363v3.57q0,.357-.147.357a24.2,24.2,0,0,1-3.055-3.475q-2.824-3.476-6.206-7.949v1.554q0,.8.021,1.386V-1.05q0,.441.273.546a2.883,2.883,0,0,0,1.029.168q.693,0,.777.105a.122.122,0,0,1,.021.084q0,.168-.315.168A1.966,1.966,0,0,1,29.4,0q-1.26-.042-1.575-.042-.735,0-1.932.042-.588.021-.5.021-.315,0-.315-.168,0-.147.924-.21,1.071-.084,1.239-.336A5.287,5.287,0,0,0,27.342-2.2v-8.631q0-1.323-.042-1.6a1.838,1.838,0,0,0-.735-1.344,3.507,3.507,0,0,0-1.722-.357q-.336-.021-.336-.189,0-.189.294-.189.126,0,.9.042.378.021,1.134.021,1.554,0,2.52-.042l7.371,9.471v-8.316q0-.5-.168-.641a1.327,1.327,0,0,0-.714-.157l-.9-.042q-.252-.021-.252-.147,0-.168.378-.168h.462q.126,0,.42-.021h.483q2.121,0,2.478.021T39.27-14.3ZM46.6-.147q0,.168-.273.168A1.663,1.663,0,0,1,46.053,0q-1.26-.063-2.163-.063-.945,0-2.772.063-.609.021-.9.021-.315,0-.315-.189a.121.121,0,0,1,.116-.126q.115-.021.808-.042.651-.126.756-.388a7.185,7.185,0,0,0,.1-1.69V-13.293q-.021-.378-.021-.357,0-.525-1.05-.525-.588,0-.588-.147t.084-.168a3.709,3.709,0,0,1,.546-.021q-.21,0,.756.021t1.659.021h1.071q.336,0,.956-.032t.871-.031h.21q.273,0,.273.168a.146.146,0,0,1-.095.158,3.836,3.836,0,0,1-.64.052q-.651.042-.8.273l-.063.4V-1.617q0,.9.2,1.071a3.211,3.211,0,0,0,1.355.231Q46.6-.294,46.6-.147ZM44.583-16.863a1.25,1.25,0,0,1-.368.9,1.222,1.222,0,0,1-.914.378,1.216,1.216,0,0,1-.9-.389,1.267,1.267,0,0,1-.378-.914,1.179,1.179,0,0,1,.4-.882,1.3,1.3,0,0,1,.924-.378,1.175,1.175,0,0,1,.872.378A1.25,1.25,0,0,1,44.583-16.863ZM57.33-4.137A4.114,4.114,0,0,1,55.975-.977,4.9,4.9,0,0,1,52.521.273a10.667,10.667,0,0,1-3.528-.861A.856.856,0,0,0,48.7-.651q-.357,0-.546.756-.063.231-.168.231-.168,0-.168-.294a7.619,7.619,0,0,1,.105-.966,9.14,9.14,0,0,0,.084-1.323q0-.609-.021-.966-.042-.714-.042-.84,0-.336.21-.336t.378.9a3.993,3.993,0,0,0,1.323,2.415,3.68,3.68,0,0,0,2.394.924,2.72,2.72,0,0,0,1.911-.714A2.278,2.278,0,0,0,54.936-2.6a1.946,1.946,0,0,0-.5-1.407A14.694,14.694,0,0,0,52-5.5a8.532,8.532,0,0,1-3.108-2.436,4.6,4.6,0,0,1-.756-2.646,3.9,3.9,0,0,1,1.281-2.992,4.574,4.574,0,0,1,3.234-1.187,5.809,5.809,0,0,1,2.247.5,1.75,1.75,0,0,0,.567.168q.315,0,.42-.546.042-.189.189-.189.21,0,.21.273,0,.1-.042.588t-.042.8a17.128,17.128,0,0,0,.084,1.848.546.546,0,0,1,.021.168q0,.189-.168.189-.189,0-.378-.672a4.31,4.31,0,0,0-.661-1.333,3.42,3.42,0,0,0-.955-.955,2.8,2.8,0,0,0-1.47-.378,2.863,2.863,0,0,0-1.869.567,1.9,1.9,0,0,0-.693,1.554,2.109,2.109,0,0,0,.651,1.522,11.986,11.986,0,0,0,2.5,1.691,14.37,14.37,0,0,1,3,2.016A3.894,3.894,0,0,1,57.33-4.137Zm-2.2,6.552a1.62,1.62,0,0,1-.651,1.291,2.369,2.369,0,0,1-1.554.536,2.439,2.439,0,0,1-1.092-.283q-.567-.284-.567-.557a.093.093,0,0,1,.1-.1.563.563,0,0,1,.147.1,1.1,1.1,0,0,0,.777.315q1.029,0,1.029-1.617,0-1.092-.714-1.092h-.084Q52.5.819,52.5.231V.063a.546.546,0,0,0,.168.021.546.546,0,0,0,.168-.021q.021.231.021.462V.819A1.966,1.966,0,0,1,53.172.8a2.123,2.123,0,0,1,1.386.462A1.431,1.431,0,0,1,55.125,2.415Zm15.351-6.09q0,.042-.021,1.953-.021,1.008-.032,1.449t-.01.42Q64.869-.105,60.711,0L58.947.042q-.378,0-.378-.168,0-.126.095-.147t.64-.063Q60.291-.4,60.375-.9a4.026,4.026,0,0,0,.042-.609V-12.159q0-1.26-.021-1.386a.56.56,0,0,0-.21-.462,1.579,1.579,0,0,0-.777-.126q-.651,0-.651-.189,0-.21.577-.21t1.607-.021q3.864-.084,6.321-.042l1.428.021a9.4,9.4,0,0,0,1.134-.084l.189,2.289q.1,1.092.105,1.344a.186.186,0,0,1-.21.21q-.21,0-.273-.546a2.84,2.84,0,0,0-1.166-2.111,5.166,5.166,0,0,0-2.887-.661q-.588,0-2.016.063v6.2A7.17,7.17,0,0,0,66.476-8.2q.6-.346.808-1.8.1-.777.315-.777.189,0,.189.378t-.063,1.554q-.021.4-.021,1.071,0,1.806.042,2.73a1.966,1.966,0,0,1,.021.315q0,.252-.189.252a.184.184,0,0,1-.189-.095,4.366,4.366,0,0,1-.126-.682,3.712,3.712,0,0,0-.577-1.859A2.579,2.579,0,0,0,65-7.476H63.567V-.4L64.911-.42q2.31-.042,2.814-.105a2.962,2.962,0,0,0,1.218-.462,2.312,2.312,0,0,0,.725-.9,9.967,9.967,0,0,0,.43-1.785q.063-.315.21-.315Q70.476-3.99,70.476-3.675ZM86.877,0q0,.126-.189.126A1.663,1.663,0,0,1,86.415.1,36.8,36.8,0,0,0,82.3-.021q-.315,0-.966.021l-.651.021q-.651.021-.651-.168,0-.168.525-.189a2.181,2.181,0,0,0,.809-.178q.346-.158.346-.368.021-.126.042-.693l.021-1.05V-7.5l-4.326.021q-.378,0-.735-.021l.042,6.489q.021.546.84.651.651.084.756.116a.132.132,0,0,1,.105.137q0,.126-.21.126-.273,0-1.449-.042T75.81-.063q-.126,0-1.291.053T72.3.042h-.21q-.378,0-.378-.189,0-.168.294-.168a2.63,2.63,0,0,0,1.365-.252q.168-.1.168-1.113V-13.272q0-.672-.357-.808a3.517,3.517,0,0,0-1.155-.137q-.273,0-.273-.168,0-.1.231-.126l1.575.021,2.6.021q.8,0,1.6-.042.357-.021.42-.021.294,0,.294.21a.161.161,0,0,1-.115.178,5.181,5.181,0,0,1-.735.053q-.62.021-.767.262a1.815,1.815,0,0,0-.147.872V-8l.5.021q2.1.084,4.557-.042V-12.7q0-1.428-1.071-1.428-.714,0-.714-.21,0-.189.273-.189h.21q.336,0,1.187.031t1.858.032h1.6l1.554-.063q.21,0,.21.126,0,.147-.777.21t-.966.326a2.745,2.745,0,0,0-.189,1.313V-2.226q0,1.365.347,1.649a2.072,2.072,0,0,0,1.186.325Q86.877-.231,86.877,0Zm7.476-.147q0,.168-.273.168A1.663,1.663,0,0,1,93.807,0q-1.26-.063-2.163-.063-.945,0-2.772.063-.609.021-.9.021-.315,0-.315-.189a.121.121,0,0,1,.115-.126q.116-.021.809-.042.651-.126.756-.388a7.185,7.185,0,0,0,.1-1.69V-13.293q-.021-.378-.021-.357,0-.525-1.05-.525-.588,0-.588-.147t.084-.168a3.709,3.709,0,0,1,.546-.021q-.21,0,.756.021t1.659.021H91.9q.336,0,.955-.032t.872-.031h.21q.273,0,.273.168a.146.146,0,0,1-.094.158,3.836,3.836,0,0,1-.641.052q-.651.042-.8.273l-.063.4V-1.617q0,.9.2,1.071a3.211,3.211,0,0,0,1.354.231Q94.353-.294,94.353-.147ZM92.337-16.863a1.25,1.25,0,0,1-.368.9,1.222,1.222,0,0,1-.913.378,1.216,1.216,0,0,1-.9-.389,1.267,1.267,0,0,1-.378-.914,1.179,1.179,0,0,1,.4-.882,1.3,1.3,0,0,1,.924-.378,1.175,1.175,0,0,1,.871.378A1.25,1.25,0,0,1,92.337-16.863ZM108.759-.819q0,1.176-1.533,1.176a4.054,4.054,0,0,1-3.087-1.218,3.5,3.5,0,0,1-1.029-2.016L102.9-4.6a4.491,4.491,0,0,0-.767-2.289,2.189,2.189,0,0,0-1.8-.63v4.767q0,1.659.021,1.785a.5.5,0,0,0,.294.493,3.021,3.021,0,0,0,1.113.137q.5,0,.5.189,0,.168-.252.168L99.981,0h-.336q-.378.021-.714.021H97.419q-.21,0-.483-.021h-.294l-.966.021q-.294,0-.294-.168,0-.189.861-.231.714-.042.84-.336a3.345,3.345,0,0,0,.063-.882V-12.411A10.375,10.375,0,0,0,97.1-13.7a.434.434,0,0,0-.273-.3,2.581,2.581,0,0,0-.945-.126q-.462,0-.462-.189,0-.147.189-.179a8.982,8.982,0,0,1,1.008-.031H97q.378.021.735.021h.693l.441-.021h1.974a11.6,11.6,0,0,1,4.011.462,3.031,3.031,0,0,1,1.344,1.092,2.8,2.8,0,0,1,.5,1.617,3.15,3.15,0,0,1-2.1,2.982,9.588,9.588,0,0,1-2.73.63l-.021.126a4.927,4.927,0,0,1,3.318,1.207,5.542,5.542,0,0,1,1.239,3.434,5.566,5.566,0,0,0,.525,2.363.969.969,0,0,0,.735.472q.315,0,.315-.168,0-.084-.242-.231a.465.465,0,0,1-.242-.42q0-.567.63-.567T108.759-.819Zm-5.313-10.605q0-2.709-2.142-2.709-.693,0-.861.462a12.426,12.426,0,0,0-.105,2.289V-7.9a2.948,2.948,0,0,0,2.373-.819A4.07,4.07,0,0,0,103.446-11.424Z" transform="translate(1270 783)"/><path d="M8.016-4.365A4.325,4.325,0,0,1,6.864-1.122,4.555,4.555,0,0,1,3.551,0H1.178V-8.566H3.8A4.2,4.2,0,0,1,6.908-7.459,4.182,4.182,0,0,1,8.016-4.365ZM6.961-4.33A3.449,3.449,0,0,0,6.12-6.855a3.37,3.37,0,0,0-2.5-.85H2.174V-.861H3.387a3.688,3.688,0,0,0,2.678-.876A3.468,3.468,0,0,0,6.961-4.33ZM14.366,0V-8.566h1V0Zm-.082-10.143a.646.646,0,0,1,.164-.489.573.573,0,0,1,.41-.155.573.573,0,0,1,.4.158.634.634,0,0,1,.17.486.644.644,0,0,1-.17.489.567.567,0,0,1-.4.161.562.562,0,0,1-.41-.161A.658.658,0,0,1,14.284-10.143ZM24.331-4.283l2.285-4.283h1.078L24.835-3.322V0H23.827V-3.275L20.974-8.566h1.09ZM37.976,0,36.91-2.725H33.476L32.422,0H31.414L34.8-8.6h.838L39.007,0ZM36.6-3.621l-1-2.654q-.193-.5-.4-1.236a11.1,11.1,0,0,1-.369,1.236L33.828-3.621Zm9.022.059V0h-1V-8.566h2.35a3.7,3.7,0,0,1,2.329.6,2.188,2.188,0,0,1,.753,1.816,2.275,2.275,0,0,1-1.723,2.3L50.66,0H49.483L47.408-3.562Zm0-.855h1.365a2.358,2.358,0,0,0,1.547-.419,1.559,1.559,0,0,0,.492-1.257,1.43,1.43,0,0,0-.5-1.225,2.714,2.714,0,0,0-1.608-.375H45.621ZM56.483-8.566H58.9a4.566,4.566,0,0,1,2.467.51,1.8,1.8,0,0,1,.762,1.611,1.862,1.862,0,0,1-.425,1.257,2.045,2.045,0,0,1-1.239.642v.059q1.951.334,1.951,2.051a2.2,2.2,0,0,1-.776,1.793A3.3,3.3,0,0,1,59.471,0H56.483Zm1,3.668H59.12a2.671,2.671,0,0,0,1.518-.331A1.278,1.278,0,0,0,61.1-6.346a1.13,1.13,0,0,0-.516-1.04,3.222,3.222,0,0,0-1.641-.319H57.479Zm0,.844V-.85h1.787a2.545,2.545,0,0,0,1.562-.4,1.482,1.482,0,0,0,.524-1.257,1.331,1.331,0,0,0-.536-1.172,2.866,2.866,0,0,0-1.632-.375ZM73.843,0,72.777-2.725H69.343L68.288,0H67.281l3.387-8.6h.838L74.874,0ZM72.466-3.621l-1-2.654q-.193-.5-.4-1.236A11.1,11.1,0,0,1,70.7-6.275L69.695-3.621ZM86.68,0H85.508L82.385-4.154l-.9.8V0h-1V-8.566h1v4.248l3.885-4.248h1.178L83.105-4.846ZM92.3,0V-8.566h1V0Zm8.782-3.562V0h-1V-8.566h2.35a3.7,3.7,0,0,1,2.329.6,2.188,2.188,0,0,1,.753,1.816,2.275,2.275,0,0,1-1.723,2.3L106.118,0H104.94l-2.074-3.562Zm0-.855h1.365a2.358,2.358,0,0,0,1.547-.419,1.559,1.559,0,0,0,.492-1.257,1.43,1.43,0,0,0-.5-1.225,2.714,2.714,0,0,0-1.608-.375h-1.295Z" transform="translate(1271 799)"/></g></svg>